<svg width="50" height="50" viewBox="0 0 50 50" fill="none" xmlns="http://www.w3.org/2000/svg">
<path d="M25 50C11.1922 50 0 38.8078 0 25C0 11.1922 11.1922 0 25 0C38.8078 0 50 11.1922 50 25C50 38.8078 38.8078 50 25 50ZM18.9313 22.5063L25 16.4375L31.0719 22.5094L34.6031 18.9781L25 9.375L15.4 18.975L18.9313 22.5063ZM9.375 25L12.9063 28.5313L16.4375 25L12.9063 21.4687L9.375 25ZM18.9313 27.4938L15.3953 31.0203L15.4 31.025L25 40.625L34.6031 31.0219V31.0203L31.0719 27.4891L25 33.5625L18.9313 27.4938ZM33.5625 25L37.0937 28.5313L40.625 25L37.0937 21.4687L33.5625 25ZM28.5812 24.9969H28.5828L25 21.4156L22.3516 24.0625L22.0469 24.3672L21.4203 24.9953L21.4141 25L21.4203 25.0047L24.9984 28.5844L28.5828 25.0016L28.5844 25L28.5812 24.9984V24.9969Z" fill="#FDD700"/>
</svg>
