<svg xmlns="http://www.w3.org/2000/svg" width="1000" height="622" viewBox="0 0 1000 622">
  <defs>
    <style>
      .cls-1 {
        fill: none;
        stroke: #fdd700;
        stroke-width: 2px;
        stroke-dasharray: 8 4;
        fill-rule: evenodd;
      }
    </style>
  </defs>
  <path class="cls-1" d="M1001,572S933.45,424.549,894,364s-92.294-89.69-140-164-26.716-83.965-68-128S565,1,565,1"/>
  <path class="cls-1" d="M859,622s41.4-108.956,57-164,10-82.891,10-115,14.431-73.286-3-132S834.257,109.513,826,93,814,2,814,2"/>
  <path class="cls-1" d="M42,620s34.477-84.873,62-139,84.752-112.643,82-142-14.807-52.661-46-60-58.156,8.4-71,24-11.761,39.817,2,60,63.569,78.074,81,90,77.817,55.661,98,63c50.446,18.344,185.554,23.99,268,9-35.9,6.527,265.972-38.513,299-22s37,45,37,45l18,72"/>
</svg>
