<svg xmlns="http://www.w3.org/2000/svg" width="1000" height="622" viewBox="0 0 1000 622">
  <defs>
    <style>
      .cls-1 {
        fill: none;
        stroke: #fdd700;
        stroke-linecap: round;
        stroke-linejoin: round;
        stroke-width: 2px;
        stroke-dasharray: 0.001 4;
        fill-rule: evenodd;
      }
    </style>
  </defs>
  <path class="cls-1" d="M909,622L843,406,779,203s-31.895-77.978-1.376-127.929C787.5,58.292,839,4,839,4"/>
  <path class="cls-1" d="M1001,74"/>
  <path class="cls-1" d="M3,516s230.513-32.179,255-46c18.518-10.452,33.947-27.481,37-49,2.732-19.261-8.607-34.73-22-44-18.364-12.71-41.486-4.835-53,3s-23.922,21.115-22,48c2.574,36,22.361,58.009,53,66s63.189,9.572,93,0,54.366-36.816,105-36,58.764,45.278,122,45,97.432-51.767,148-52S830.057,588,832,620"/>
  <path class="cls-1" d="M2,94"/>
  <path class="cls-1" d="M583,3s54.676,73.695,105,96c26.657,14.465,119.4,32.988,155,88,27.712,51.719,18.093,74.492,49,116,41.379,55.571,103.827,102.254,108,110"/>
</svg>
